<svg xmlns="http://www.w3.org/2000/svg" width="152" height="152" viewBox="0 0 152 152">
  <path d="M 2.375 29.6875 L 73.625 42.75 L 73.625 52.25 L 2.375 67.6875 Z" fill="#ffe49b"/>
  <path d="M 149.625 29.6875 L 76 42.75 L 76 52.25 L 149.625 67.6875 Z" fill="#ffe49b"/>
  <ellipse cx="75.48937" cy="139.92312" rx="19.97375" ry="11.81562" fill="#7750a5"/>
  <rect x="55.51562" y="127.89375" width="39.95938" height="13.16938" rx="0" fill="#7750a5"/>
  <ellipse cx="75.48937" cy="128.09563" rx="19.97375" ry="11.4" fill="#af7bd3"/>
  
  <path d="M 60.5625 34.4375 L 90.25 34.4375 L 94.34687 125.00812 C 86.6875 140.125 64.125 140.125 57.32063 124.74688 Z" fill="#35b7bd"/>
  
  <path d="M 58.1875 100.9375 C 67.6875 105.6875 83.125 106.875 92.625 102.125 L 94.34687 125.00812 C 86.6875 140.125 64.125 140.125 57.32063 124.74688 Z" fill="#af7bd3"/>
  
  <path d="M 59.375 71.25 C 68.875 77.1875 81.9375 76 91.4375 72.4375 L 92.625 92.625 C 81.9375 99.75 68.875 98.5625 58.78125 91.4375 Z" fill="#f5c455"/>
  
  <path d="M 53.4375 32.0625 L 74.8125 3.5625 L 98.5625 32.0625 C 86.6875 40.375 64.125 40.375 53.4375 32.0625 Z" fill="#e86a58"/>
  
  <ellipse cx="74.8125" cy="4.75" rx="2.96875" ry="2.96875" fill="#f5c455"/>
  
  <ellipse cx="75.525" cy="60.5625" rx="21.375" ry="7.125" fill="#7750a5"/>
  
  <path d="M 60.24187 35.53 C 63.3175 39.17563 69.4925 40.68375 75.64375 40.83812 C 81.51 40.83812 87.38813 38.91438 89.78687 36.005 L 90.16688 53.4375 C 88.04125 55.82437 82.53125 58.16375 76.02375 58.10437 C 68.93438 58.00937 61.465 54.73188 59.8025 52.71312 Z" fill="#fff4b0"/>
  
  <rect x="74.04063" y="40.17312" width="3.28938" height="19.41563" rx="0" fill="#f5c455"/>
  
  <ellipse cx="76" cy="84.3125" rx="4.75" ry="5.9375" fill="#7750a5"/>
  
  <ellipse cx="76" cy="84.3125" rx="2.96875" ry="4.0375" fill="#94d5f5"/>
  
  <path d="M 69.42125 128.28563 C 69.42125 126.635 71.68937 124.01063 74.99062 124.08187 C 77.68625 124.14125 80.23937 126.32625 80.2275 128.155 C 80.2275 136.2775 80.0375 143.29563 80.0375 151.41813 C 77.91187 151.5725 76.58187 151.92875 74.74125 151.905 C 72.85313 151.88125 69.48063 151.18062 69.48063 151.18062 Z" fill="#46536e"/><path d="M 70.02688 130.07875 C 70.00312 127.52563 71.49938 125.74438 71.95063 125.6375 C 72.40188 125.53062 72.77 128.41625 72.77 129.49687 L 72.73438 146.94125 L 70.13375 150.6225 C 70.03875 143.28375 70.08625 134.24687 70.02688 130.07875 Z" fill="#46536e" transform="rotate(0.7 71.3925 138.083)"/><path d="M 79.99 130.1975 C 80.02563 127.64437 78.52937 125.86312 78.06625 125.75625 C 77.615 125.66125 77.25875 128.54688 77.25875 129.6275 L 77.2825 146.73937 C 77.62688 147.80812 79.40813 150.385 79.88312 150.75313 C 79.99 143.41438 79.9425 134.3775 79.99 130.1975 Z" fill="#46536e" transform="rotate(0.8 78.6363 138.213)"/></svg>
