<svg xmlns="http://www.w3.org/2000/svg" width="64" height="64" viewBox="0 0 64 64">
  <rect x="29" y="55" width="3" height="7" rx="1" fill="#6e829a"/>
  <rect x="33" y="55" width="3" height="7" rx="1" fill="#6e829a"/>
  <rect x="28" y="61.5" width="9" height="2.47" rx="1" fill="#19283d"/>
  <rect x="26" y="43" width="11" height="14" rx="2.5" fill="#a5bbca"/>
  <rect x="28" y="46" width="6" height="6" rx="1.3" fill="#293f61"/>
  <ellipse cx="31" cy="49" rx="1.7" ry="1.7" fill="#f3b123"/>
  <rect x="21.5" y="45" width="3" height="10" rx="2" fill="#6e829a"/>
  <ellipse cx="23.5" cy="55" rx="2.3" ry="2.3" fill="#f3b123"/>
  <rect x="34.6" y="45" width="3" height="10" rx="2" fill="#6e829a"/>
  <ellipse cx="36.6" cy="55" rx="2.3" ry="2.3" fill="#f3b123"/>
  <rect x="18" y="14" width="26" height="28" rx="5" fill="#a5bbca"/>
  <rect x="18" y="14" width="7" height="28" rx="3" fill="#6e829a"/>
  <rect x="26" y="20" width="18" height="15" rx="4" fill="#293f61"/>
  <rect x="29" y="23" width="4" height="6" rx="2" fill="#94d5f5"/>
  <rect x="38" y="23" width="4" height="6" rx="2" fill="#94d5f5"/>
  <rect x="31" y="30.8" width="9" height="1.5" rx="0.6" fill="#ffffff"/>
  <line x1="31" y1="14" x2="31" y2="12" stroke="#6e829a" stroke-width="1.5" stroke-linecap="round"/>
  <ellipse cx="31" cy="12" rx="1.5" ry="1.1" fill="#e05245"/>
  <rect x="16" y="24" width="3" height="10" rx="1" fill="#f3b123"/>
  <rect x="43" y="24" width="3" height="10" rx="1" fill="#f3b123"/>
  <line x1="21" y1="20" x2="21" y2="25" stroke="#a5bbca" stroke-width="1" stroke-linecap="round"/>
  <line x1="21" y1="29" x2="21" y2="34" stroke="#a5bbca" stroke-width="1" stroke-linecap="round"/>
  <rect x="29" y="42" width="6" height="1" fill="#6e829a"/>
</svg>
